<?xml version="1.0"?><svg version="1.2" baseProfile="tiny-ps" viewBox="0 0 300 300" xmlns="http://www.w3.org/2000/svg" xmlns:xlink="http://www.w3.org/1999/xlink"><title>bimi-logo

</title><g><g fill="#feffff" transform="matrix(.1 0 0 -.1 0 300)"><path d="M1449 2933c-23-32-122-157-218-278l-176-220-156-165-156-165-174-153c-96-85-263-221-372-304L-2 1498l9-8c4-4 112-88 238-185C713 943 947 708 1329 213 1420 96 1497 0 1500 0c4 0 67 80 141 178 265 353 542 656 796 869 154 129 399 325 491 392 39 29 72 56 72 60 0 5-79 66-175 136l-174 128-186 159-185 159-190 202c-185 198-242 266-468 560-62 81-116 147-121 147s-28-26-52-57z"/></g><g fill="#bce2e3" transform="matrix(.1 0 0 -.1 0 300)"><path d="M1449 2933c-23-32-122-157-218-278l-176-220-156-165-156-165-174-153c-96-85-263-221-372-304L-2 1498l9-8c4-4 112-88 238-185C713 943 947 708 1329 213 1420 96 1497 0 1500 0c4 0 67 80 141 178 184 245 351 441 528 620l151 151 148 123c174 146 359 293 460 367 39 29 72 56 72 60 0 5-79 66-175 136l-174 128-186 159-185 159-190 202c-185 198-242 266-468 560-62 81-116 147-121 147s-28-26-52-57zm149-473 89-175 39-120 39-120v-200l-27-65c-15-35-26-66-23-68 2-2 29 5 59 17 30 11 83 25 118 31l63 10 65-11c36-5 107-24 157-41l93-30 192-95 192-94-38-25c-21-14-72-42-114-61-43-19-101-46-130-59-109-50-173-74-257-99l-87-25h-143l-70 21c-39 11-78 23-87 26l-17 5 29-81 30-82V988l-16-62c-40-159-89-272-246-570l-10-19-84 170c-100 205-135 291-164 402l-22 84 4 76 4 76 27 65c14 35 25 66 23 68-2 1-32-7-67-19l-64-22-85-5-85-4-65 17c-36 9-96 28-135 42-99 37-358 157-401 187l-37 25 114 57c204 103 249 123 352 158 56 20 134 40 174 46l71 11 62-11c35-6 85-20 113-31 27-11 51-18 53-16 2 1-9 32-24 67l-27 65v210l38 110 38 109 91 188 91 189 8-8c5-5 48-87 97-183zm-163-781-30-8-42-43-42-43-12-45-11-45 12-45 12-45 42-41 41-41 50-11 51-11 39 9c68 15 128 77 141 146l6 34-7 46-7 46-40 44-40 44-37 10c-42 12-84 12-126-1z"/></g><g fill="#78cccd" transform="matrix(.1 0 0 -.1 0 300)"><path d="M1345 2798c-83-106-157-202-166-213-333-403-607-660-1061-998-65-48-118-89-118-91s62-50 138-107C660 997 927 734 1329 213 1420 96 1497 0 1500 0c4 0 67 80 141 178 318 424 662 781 1009 1047 36 28 70 55 77 61 7 7 71 56 143 109 71 54 130 100 130 104s-28 27-62 51c-236 165-582 456-769 647-197 199-262 277-607 724-29 38-56 69-61 69-4 0-74-87-156-192zm243-308c89-172 142-306 173-438l21-87-6-52c-3-29-17-83-31-121s-25-72-25-74c0-3 30 6 68 20l67 25 100 1h100l110-38 110-37 194-95 194-94-39-27c-48-33-285-141-413-189-52-20-131-43-174-51l-78-15-72 12c-40 7-93 21-119 31-27 10-48 17-48 16 0-2 11-36 25-76l25-72 6-57 5-57-24-95c-35-134-87-261-180-439l-81-155-45 95c-160 330-200 434-221 562l-11 68 11 61c6 33 22 85 35 114 13 30 23 54 22 54s-25-9-53-19c-28-11-81-25-117-31l-66-12-73 12c-40 7-117 28-172 47-110 38-380 162-434 198l-35 24 194 96 194 95 110 37 110 36 105 1h105l59-22c33-12 61-20 63-18s-6 28-17 57c-12 30-26 77-31 105l-10 52 11 69c19 125 61 234 182 486l82 167 7-7c4-5 43-78 87-163zm-196-839c-23-18-52-46-63-64l-20-32 3-67 4-68 39-41c22-23 54-48 72-55l32-14h93l40 22 40 23 26 45 27 45-1 55v55l-17 32c-9 18-33 45-54 60l-36 28-71 3-71 4-43-31z"/></g><g fill="#3cc3c5" transform="matrix(.1 0 0 -.1 0 300)"><path d="M1359 2813c-146-194-294-375-428-522-186-204-555-525-830-721l-104-74 24-17c396-284 785-626 992-871 162-193 227-273 354-440 71-92 131-167 134-167 3-1 26 27 50 61 141 201 419 534 596 713 240 244 429 407 712 613 77 57 141 105 141 107 0 1-48 39-107 83-223 165-450 351-573 468-36 35-77 72-92 83-82 65-402 438-615 718-57 76-108 139-112 141-4 1-68-77-142-175zm243-343 84-165 44-130 44-130v-200l-27-63-26-64 17 7c9 4 46 16 82 26l65 19h137l62-15c94-24 235-82 420-173l169-83-49-31c-27-17-74-42-104-55-30-14-84-38-120-55-122-56-228-96-317-118l-88-23-75 6-75 6-59 21c-33 11-60 20-62 20-1 0 9-28 24-62l26-63v-100l-1-100-36-105c-19-58-42-123-51-145-29-70-181-365-188-365-6 0-60 107-163 325-23 50-57 135-75 190l-33 100-1 100v100l26 63c15 34 25 62 24 62-2 0-29-9-62-21l-59-20-80-5-80-6-96 26c-129 34-422 161-537 233l-34 21 160 81c188 95 307 144 413 171l77 20h79l78-1 70-23c39-14 71-23 72-22s-10 31-24 66l-27 65v180l17 60c29 100 76 211 164 394l84 175 14-15c7-8 51-88 97-179zm-177-802c-11-6-37-27-58-47l-37-35-11-40-11-40 7-43 6-44 42-44 42-43 44-12 44-12 36 7c52 10 87 31 117 71l27 35 5 54c6 71-2 97-40 141l-33 37-32 13-32 14h-48l-48-1-20-11z"/></g></g></svg>